<?xml version="1.0" encoding="utf-8"?>
<!-- Generator: Adobe Illustrator 24.2.3, SVG Export Plug-In . SVG Version: 6.00 Build 0)  -->
<svg version="1.1" id="Layer_1" xmlns="http://www.w3.org/2000/svg" xmlns:xlink="http://www.w3.org/1999/xlink" x="0px" y="0px"
	 viewBox="0 0 20 30" style="enable-background:new 0 0 20 30;" xml:space="preserve">
<style type="text/css">
	.st0{fill:#4D4D4D;}
</style>
<path class="st0" d="M10.09,29.63c-0.01,0-0.02,0-0.02,0c-0.05-0.05-0.1-0.1-0.14-0.15c-0.13-0.2-0.25-0.4-0.37-0.61
	c-0.32-0.52-0.64-1.04-0.95-1.56C8.3,26.81,8,26.3,7.69,25.79c-0.21-0.34-0.42-0.69-0.63-1.03c-0.31-0.51-0.61-1.02-0.92-1.53
	c-0.25-0.41-0.5-0.81-0.74-1.22C5.09,21.51,4.78,21,4.47,20.49c-0.32-0.53-0.64-1.06-0.96-1.59c-0.36-0.59-0.72-1.19-1.08-1.78
	c-0.2-0.34-0.41-0.67-0.61-1.02c-0.18-0.32-0.33-0.65-0.5-0.97c-0.06-0.12-0.11-0.25-0.17-0.38c-0.04-0.1-0.08-0.19-0.11-0.28
	c-0.02-0.02-0.04-0.03-0.05-0.05c-0.09-0.22-0.19-0.44-0.26-0.66c-0.17-0.55-0.34-1.1-0.49-1.66c-0.14-0.54-0.24-1.1-0.25-1.66
	c0-0.02-0.02-0.04-0.03-0.07c0-0.09,0-0.19,0-0.28c0.01-0.02,0.03-0.04,0.03-0.06c0-0.42,0.03-0.84,0.12-1.25
	C0.2,8.42,0.26,8.04,0.35,7.67c0.09-0.35,0.21-0.69,0.34-1.02C0.83,6.3,0.98,5.96,1.15,5.63C1.39,5.17,1.66,4.72,2,4.31
	C2.25,3.99,2.5,3.66,2.79,3.37c0.32-0.33,0.67-0.63,1.02-0.93c0.24-0.2,0.51-0.37,0.77-0.55C4.81,1.74,5.05,1.61,5.3,1.47
	c0.2-0.11,0.4-0.22,0.61-0.3c0.33-0.14,0.67-0.28,1.01-0.4C7.2,0.68,7.47,0.6,7.75,0.54c0.32-0.07,0.64-0.12,0.96-0.17
	C9.01,0.33,9.3,0.29,9.6,0.28c0.37-0.01,0.74,0.01,1.11,0.02c0.21,0.01,0.43,0.01,0.63,0.05c0.4,0.07,0.8,0.13,1.19,0.24
	c0.46,0.13,0.92,0.27,1.36,0.45c0.4,0.16,0.79,0.37,1.18,0.58c0.26,0.14,0.5,0.3,0.74,0.47c0.27,0.19,0.54,0.4,0.79,0.62
	c0.36,0.32,0.71,0.65,1.03,1.01c0.36,0.4,0.67,0.84,0.96,1.29c0.36,0.57,0.66,1.17,0.89,1.8c0.16,0.45,0.28,0.91,0.4,1.37
	c0.06,0.21,0.08,0.43,0.12,0.65c0.03,0.18,0.06,0.36,0.07,0.55c0.02,0.21,0.02,0.43,0.03,0.64c0,0.02,0.02,0.04,0.03,0.06
	c0,0.12,0,0.25,0,0.37c-0.01,0.02-0.02,0.04-0.03,0.07c-0.02,0.23-0.03,0.46-0.07,0.69c-0.06,0.35-0.14,0.7-0.23,1.05
	c-0.07,0.28-0.15,0.56-0.24,0.84c-0.09,0.3-0.2,0.6-0.3,0.9c-0.08,0.22-0.17,0.43-0.26,0.64c-0.14,0.3-0.28,0.61-0.42,0.9
	c-0.07,0.14-0.17,0.27-0.24,0.41c-0.08,0.16-0.15,0.34-0.24,0.49c-0.17,0.29-0.36,0.58-0.54,0.87c-0.18,0.3-0.36,0.61-0.55,0.92
	c-0.3,0.49-0.6,0.98-0.89,1.48c-0.33,0.55-0.66,1.1-1,1.66c-0.28,0.46-0.55,0.91-0.83,1.37c-0.38,0.63-0.76,1.25-1.14,1.88
	c-0.31,0.51-0.62,1.03-0.94,1.54c-0.31,0.51-0.62,1.03-0.94,1.54c-0.25,0.41-0.5,0.83-0.75,1.24C10.37,29.17,10.23,29.4,10.09,29.63
	z M9.96,14.98c2.64,0.03,4.58-2.11,4.7-4.35c0.08-1.39-0.36-2.6-1.33-3.59c-0.86-0.88-1.92-1.36-3.14-1.4
	c-2.83-0.09-4.77,2.12-4.87,4.43c-0.06,1.33,0.37,2.5,1.29,3.47C7.52,14.48,8.64,14.96,9.96,14.98z"/>
</svg>
