<?xml version="1.0" encoding="utf-8"?>
<!-- Generator: Adobe Illustrator 24.2.3, SVG Export Plug-In . SVG Version: 6.00 Build 0)  -->
<svg version="1.1" id="Layer_1" xmlns="http://www.w3.org/2000/svg" xmlns:xlink="http://www.w3.org/1999/xlink" x="0px" y="0px"
	 viewBox="0 0 15 17" style="enable-background:new 0 0 15 17;" xml:space="preserve">
<style type="text/css">
	.st0{fill:#F8F6F6;}
</style>
<g>
	<path class="st0" d="M11.78,9c0.84,0.52,1.5,1.2,1.96,2.06c0.42,0.78,0.64,1.62,0.64,2.51c0,1.31,0,1.89,0,3.2
		c0,0.03,0,0.07,0,0.11c-4.52,0-9.04,0-13.56,0c0-0.02-0.01-0.04-0.01-0.06c0-1.39-0.03-2.05,0.01-3.44c0.05-1.62,0.75-2.94,2-3.97
		C3.03,9.25,3.27,9.1,3.5,8.94c1.1,1.27,2.46,1.96,4.13,1.97C9.3,10.92,10.67,10.25,11.78,9z"/>
	<path class="st0" d="M3.64,4.08c0-2.22,1.81-4.03,4.04-4.03c2.22,0,4.03,1.81,4.02,4.03c-0.01,2.23-1.81,4.03-4.03,4.03
		C5.45,8.11,3.64,6.3,3.64,4.08z"/>
</g>
</svg>
