<?xml version="1.0" encoding="utf-8"?>
<!-- Generator: Adobe Illustrator 24.2.3, SVG Export Plug-In . SVG Version: 6.00 Build 0)  -->
<svg version="1.1" id="Layer_1" xmlns="http://www.w3.org/2000/svg" xmlns:xlink="http://www.w3.org/1999/xlink" x="0px" y="0px"
	 viewBox="0 0 30 30" style="enable-background:new 0 0 30 30;" xml:space="preserve">
<style type="text/css">
	.st0{fill:#777777;}
</style>
<path class="st0" d="M3.54,3.44c-0.78,0-1.53,0.01-2.28,0C0.51,3.42,0.03,3,0.02,2.37C0.01,1.7,0.5,1.26,1.29,1.26
	c0.75-0.01,1.5-0.01,2.25,0c1.15,0.02,1.98,0.72,2.2,1.86C5.92,4.07,6.15,5.03,6.25,6c0.06,0.66,0.37,0.73,0.92,0.73
	c6.89-0.01,13.78-0.01,20.67-0.01c1.45,0,1.79,0.4,1.54,1.81c-0.51,2.82-1.02,5.63-1.53,8.45c-0.32,1.75-1.6,2.84-3.38,2.84
	c-4.96,0.01-9.91,0-14.87,0c-0.25,0-0.5,0-0.82,0c0.2,1.09,0.38,2.13,0.59,3.28c0.26,0,0.52,0,0.78,0c4.62,0,9.23-0.01,13.85,0.01
	c1.43,0,2.47,0.7,3.05,2.01c0.54,1.21,0.26,2.59-0.66,3.54c-1.01,1.04-2.54,1.3-3.83,0.64c-1.31-0.67-2-2.09-1.74-3.53
	c0.02-0.13,0.05-0.27,0.08-0.44c-2.65,0-5.27,0-7.8,0c-0.03,0.65,0.03,1.27-0.1,1.85c-0.31,1.35-1.22,2.17-2.57,2.42
	c-1.32,0.25-2.44-0.21-3.23-1.3c-0.81-1.12-0.88-2.34-0.18-3.52c0.26-0.44,0.3-0.81,0.21-1.27C6.05,16.97,4.86,10.44,3.67,3.91
	C3.65,3.78,3.6,3.65,3.54,3.44z"/>
</svg>
